# xmcd
#
# Track frame offsets: 
#        150
#        11325
#        23008
#        35504
#        48374
#        59835
#        69999
#        81808
#        93605
#        105337
#        117782
#        127840
#        137966
#        149147
#        162269
#        172869
#        186479
#        199363
#        211890
#        224969
#        237419
#        249311
#        259432
#        272211
#        285059
#
# Disc length: 3947 seconds
#
# Revision: 1
# Processed by: cddbd v1.5.2PL0 Copyright (c) Steve Scherf et al.
# Submitted via: ExactAudioCopyFreeDBPlugin 1.0
#
DISCID=7a0f6919
DTITLE=Various Artist - Rhythm 'n' Blues:  Nasty [Membran Music] [box
DTITLE=set]
DYEAR=2005
DGENRE=Risqué
TTITLE0=Billy Ward and The Dominoes - Sixty Minute Man
TTITLE1=Billy Ward and The Dominoes - Can't Do Sixty No More
TTITLE2=Candy Rivers and Joe Liggins - Daddy on My Mind
TTITLE3=Ed Barron - Hey Miss Bertha
TTITLE4=Laurie Tate and Joe Morris Orchestra - Rock Me Daddy
TTITLE5=Calvin Boze - Working with My Baby
TTITLE6=Jimmy Rushing - Lotsa Poppa
TTITLE7=The Lamplighters - Ride Jockey Ride
TTITLE8=Big Maybelle - My Country Man
TTITLE9=Bob Gaddy - Slow Down Baby
TTITLE10=Lloyd Price - Chee Koo Baby
TTITLE11=Sarah Dean - I Got Your Boogie
TTITLE12=Wynonie Harris - Lovin' Machine
TTITLE13=Sonny Parker - She Sets My Soul on Fire
TTITLE14=Bobby Nunn and The Robins - That's What the Good Book Says
TTITLE15=Bull Moose Jackson - Why Don't You Haul Off and Love Me
TTITLE16=Paula Watson - Hidin' in the Sticks
TTITLE17=Roy Milton - Big Fat Mama
TTITLE18=Fluffy Hunter - The Walkin' Blues
TTITLE19=Billy Wright - New Way 0f Lovin'
TTITLE20=Big Joe Turner - I Got Love for Sale
TTITLE21=Bull Moose Jackson - Big 10 Inch Record
TTITLE22=Varetta Dillard - Mercy Mr. Percy
TTITLE23=Mooah - All Shook Up
TTITLE24=Wynonie Harris - Wasn't That Good
EXTD=Various Artist - Rhythm'n'Blues Nasty
EXTT0=
EXTT1=
EXTT2=
EXTT3=
EXTT4=
EXTT5=
EXTT6=
EXTT7=
EXTT8=
EXTT9=
EXTT10=
EXTT11=
EXTT12=
EXTT13=
EXTT14=
EXTT15=
EXTT16=
EXTT17=
EXTT18=
EXTT19=
EXTT20=
EXTT21=
EXTT22=
EXTT23=
EXTT24=
PLAYORDER=
